<svg width="104" height="56" viewBox="0 0 104 56" fill="none" xmlns="http://www.w3.org/2000/svg">
<circle cx="2" cy="2" r="2" fill="#39D353"/>
<circle cx="27" cy="2" r="2" fill="#39D353"/>
<circle cx="52" cy="2" r="2" fill="#39D353"/>
<circle cx="77" cy="2" r="2" fill="#39D353"/>
<circle cx="102" cy="2" r="2" fill="#39D353"/>
<circle cx="2" cy="15" r="2" fill="#39D353"/>
<circle cx="27" cy="15" r="2" fill="#39D353"/>
<circle cx="52" cy="15" r="2" fill="#39D353"/>
<circle cx="77" cy="15" r="2" fill="#39D353"/>
<circle cx="102" cy="15" r="2" fill="#39D353"/>
<circle cx="2" cy="28" r="2" fill="#39D353"/>
<circle cx="27" cy="28" r="2" fill="#39D353"/>
<circle cx="52" cy="28" r="2" fill="#39D353"/>
<circle cx="77" cy="28" r="2" fill="#39D353"/>
<circle cx="102" cy="28" r="2" fill="#39D353"/>
<circle cx="2" cy="41" r="2" fill="#39D353"/>
<circle cx="27" cy="41" r="2" fill="#39D353"/>
<circle cx="52" cy="41" r="2" fill="#39D353"/>
<circle cx="77" cy="41" r="2" fill="#39D353"/>
<circle cx="102" cy="41" r="2" fill="#39D353"/>
<circle cx="2" cy="54" r="2" fill="#39D353"/>
<circle cx="27" cy="54" r="2" fill="#39D353"/>
<circle cx="52" cy="54" r="2" fill="#39D353"/>
<circle cx="77" cy="54" r="2" fill="#39D353"/>
<circle cx="102" cy="54" r="2" fill="#39D353"/>
</svg>
